<?xml version="1.0" encoding="UTF-8"?>
<svg width="500" height="500" viewBox="0 0 500 500" fill="none" xmlns="http://www.w3.org/2000/svg">
    <!-- Background with subtle grid -->
    <defs>
        <pattern id="grid" width="50" height="50" patternUnits="userSpaceOnUse">
            <path d="M 50 0 L 0 0 0 50" fill="none" stroke="#6C63FF" stroke-width="0.5" opacity="0.1"/>
        </pattern>
    </defs>
    <rect width="500" height="500" fill="#1a1a1a"/>
    <rect width="500" height="500" fill="url(#grid)"/>

    <!-- Central composition -->
    <g transform="translate(100, 100)">
        <!-- Laptop base representing technology -->
        <path d="M50 200 L250 200 L300 250 L0 250 Z" fill="#2A2A2A" stroke="#6C63FF" stroke-width="2"/>
        <rect x="75" y="50" width="150" height="150" rx="10" fill="#2A2A2A" stroke="#6C63FF" stroke-width="2"/>
        
        <!-- Screen content -->
        <g transform="translate(85, 60)">
            <!-- Code lines -->
            <rect x="10" y="10" width="80" height="4" fill="#61DAFB" opacity="0.6"/>
            <rect x="10" y="20" width="100" height="4" fill="#61DAFB" opacity="0.4"/>
            <rect x="10" y="30" width="60" height="4" fill="#61DAFB" opacity="0.6"/>
            
            <!-- Data visualization elements -->
            <circle cx="100" cy="80" r="20" fill="none" stroke="#FF2D20" stroke-width="2"/>
            <path d="M80 100 L120 60" stroke="#FF2D20" stroke-width="2"/>
            <rect x="40" y="70" width="30" height="40" fill="none" stroke="#339933" stroke-width="2"/>
        </g>

        <!-- Floating elements -->
        <g transform="translate(0, 0)">
            <!-- Books representing education -->
            <path d="M270 100 L300 90 L300 170 L270 180 Z" fill="#4479A1"/>
            <path d="M240 110 L270 100 L270 180 L240 190 Z" fill="#FF2D20"/>
            <path d="M210 120 L240 110 L240 190 L210 200 Z" fill="#339933"/>
            
            <!-- Connected nodes representing community -->
            <circle cx="50" cy="40" r="5" fill="#6C63FF"/>
            <circle cx="80" cy="20" r="5" fill="#6C63FF"/>
            <circle cx="110" cy="40" r="5" fill="#6C63FF"/>
            <path d="M50 40 L80 20 L110 40" stroke="#6C63FF" stroke-width="1"/>
        </g>
    </g>

    <!-- Decorative elements -->
    <g opacity="0.2">
        <!-- Tech symbols -->
        <path d="M20 450 L40 430 L60 450 L40 470 Z" fill="#61DAFB"/>
        <circle cx="450" cy="50" r="15" fill="#FF2D20"/>
        <rect x="430" y="430" width="30" height="30" rx="5" fill="#339933"/>
    </g>

    <!-- Gradient overlay -->
    <rect width="500" height="500" fill="url(#overlay)" opacity="0.1"/>
    <defs>
        <linearGradient id="overlay" x1="0" y1="0" x2="500" y2="500">
            <stop offset="0%" stop-color="#6C63FF"/>
            <stop offset="50%" stop-color="#61DAFB"/>
            <stop offset="100%" stop-color="#339933"/>
        </linearGradient>
    </defs>
</svg> 