<?xml version="1.0" encoding="utf-8"?>
<svg viewBox="0 0 24 24" xmlns="http://www.w3.org/2000/svg">
    <path fill="#FF2D20" d="M23.642 5.43a.364.364 0 01.014.1v5.149c0 .135-.073.26-.189.326l-4.323 2.49v4.934c0 .135-.072.258-.188.326L9.93 23.949a.365.365 0 01-.188.051.372.372 0 01-.188-.051L.342 18.755a.364.364 0 01-.188-.326V3.172c0-.134.072-.258.188-.326L5.064.357a.364.364 0 01.377 0l4.323 2.49c.115.067.189.192.189.326v7.411l3.756-2.17V3.172c0-.134.072-.258.188-.326L18.72.357a.364.364 0 01.377 0l4.323 2.49c.115.067.189.192.189.326v.108l-.189.327-.94.542zm-4.512 6.757l-3.757 2.171v4.934c0 .134-.072.258-.188.326l-4.323 2.49a.364.364 0 01-.377 0l-4.323-2.49a.364.364 0 01-.188-.326v-4.934l-3.757-2.171V16.4c0 .134.072.258.188.326l8.151 4.697a.364.364 0 00.377 0l8.151-4.697a.364.364 0 00.188-.326V12.54l-.189.326-.94.542zm-4.134-4.586l-3.757 2.171v4.934c0 .134-.072.258-.188.326l-4.323 2.49a.364.364 0 01-.377 0l-4.323-2.49a.364.364 0 01-.188-.326V8.954L1.13 6.783V4.644L5.064 2.49l3.757 2.171v4.934c0 .135.072.259.188.326l4.323 2.49c.116.067.261.067.377 0l4.323-2.49a.364.364 0 00.188-.326V4.644l3.934-2.154v2.139l-3.757 2.171z"/>
</svg>