<?xml version="1.0" encoding="utf-8"?>
<svg viewBox="0 0 24 24" xmlns="http://www.w3.org/2000/svg">
    <path fill="#5C3EE8" d="M11.8992.8525C8.6137.8525 5.8938 3.5725 5.8938 6.8575c0 1.3781.4781 2.6438 1.2656 3.6563-.1969-.0094-.3907-.0407-.5938-.0407-3.285 0-5.9906 2.7056-5.9906 6 0 3.2944 2.7056 6 6 6 1.6575 0 3.1519-.6844 4.2281-1.7719.0094.0188.0219.0313.0313.05.9375 1.7156 2.7469 2.8969 4.8469 2.8969 2.1 0 3.9093-1.1813 4.8468-2.8969.0094-.0187.0219-.0312.0313-.05 1.0762 1.0875 2.5706 1.7719 4.2281 1.7719 3.2944 0 6-2.7056 6-6 0-3.2944-2.7056-6-6-6-.2031 0-.3969.0313-.5938.0407.7875-1.0125 1.2657-2.2782 1.2657-3.6563 0-3.285-2.72-6.005-6.0057-6.005-2.0906 0-3.9187 1.0875-4.9781 2.7094C13.8273 1.94 12 .8525 9.9094.8525H11.899zm0 2.4c1.4494 0 2.7 .7687 3.4031 1.9125-.0844.2531-.15.5156-.1875.7969-.2719 1.8562.9844 3.5812 2.8406 3.8531.2813.0375.5625.0375.8438 0 .7031 1.1437 1.9537 1.9125 3.4031 1.9125 2.1656 0 3.9281-1.7625 3.9281-3.9281 0-2.1657-1.7625-3.9282-3.9281-3.9282-1.4494 0-2.7.7688-3.4031 1.9125-.2813-.0375-.5625-.0375-.8438 0-1.1812.1782-2.1375.9282-2.6156 1.9313-.2625-.1219-.5438-.2157-.8438-.2532-.2812-.0375-.5625-.0375-.8437 0-.7031-1.1437-1.9537-1.9125-3.4031-1.9125-2.1657 0-3.9282 1.7625-3.9282 3.9282 0 2.1656 1.7625 3.9281 3.9282 3.9281 1.4494 0 2.7-.7688 3.4031-1.9125.2812.0375.5625.0375.8437 0 1.1813-.1781 2.1375-.9281 2.6156-1.9312.2625.1219.5438.2156.8438.2531.2813.0375.5625.0375.8438 0 .7031 1.1437 1.9537 1.9125 3.4031 1.9125 2.1656 0 3.9281-1.7625 3.9281-3.9281 0-2.1657-1.7625-3.9282-3.9281-3.9282-1.4494 0-2.7.7688-3.4031 1.9125-.2813-.0375-.5625-.0375-.8438 0-1.1812.1782-2.1375.9282-2.6156 1.9313-.2625-.1219-.5438-.2157-.8438-.2532-.2812-.0375-.5625-.0375-.8437 0-.7031-1.1437-1.9537-1.9125-3.4031-1.9125-2.1657 0-3.9282 1.7625-3.9282 3.9282 0 2.1656 1.7625 3.9281 3.9282 3.9281z"/>
</svg> 