<?xml version="1.0" encoding="utf-8"?>
<svg viewBox="0 0 24 24" xmlns="http://www.w3.org/2000/svg">
    <path fill="#F7931E" d="M15.601 5.53c-.892-.215-1.775-.363-2.648-.442a2.666 2.666 0 0 1-.03-.267c-.061-1.21.459-2.314 1.258-2.479.798-.165 1.623.644 1.842 1.808.129.696.002 1.357-.307 1.87a.099.099 0 0 0-.004.087.098.098 0 0 0 .064.06c.627.18 1.966.619 2.089.659a.098.098 0 0 0 .126-.058l.79-2.181a.1.1 0 0 0-.058-.127c-.114-.037-1.427-.466-2.048-.646.195-.666.247-1.404.113-2.172C16.481.433 15.287-.77 13.84-.476c-1.447.295-2.312 1.896-2.125 3.855.033.346.105.677.209.984-1.727-.048-3.39.202-4.875.735C2.829 6.645 0 9.659 0 13.273c0 3.615 2.829 6.629 7.049 8.176 4.22 1.547 9.182.511 11.404-2.385 2.222-2.896 1.692-6.848-2.528-8.397-.033-.012-.08.023-.069.058.231.731.33 1.508.283 2.299-.039.661-.21 1.277-.493 1.812-2.938-.821-6.292 1.05-7.549 4.173-1.256 3.124-.031 6.504 2.907 7.325 2.938.821 6.292-1.05 7.549-4.173.654-1.623.684-3.297.157-4.731 1.225-.64 2.066-1.822 2.204-3.352.168-1.872-1.047-3.566-3.15-4.138a.1.1 0 0 0-.126.058l-.79 2.181a.098.098 0 0 0 .058.127l2.089.659a.098.098 0 0 0 .126-.058l.79-2.181a.099.099 0 0 0-.058-.127c-.123-.04-1.462-.479-2.089-.659a.098.098 0 0 0-.064.06.099.099 0 0 0 .004.087c.309.513.436 1.174.307 1.87-.219 1.164-1.044 1.973-1.842 1.808-.799-.165-1.319-1.269-1.258-2.479.004-.09.016-.18.03-.267.873-.079 1.756-.227 2.648-.442a.1.1 0 0 0-.045-.195z"/>
</svg> 